<svg width="112" height="128" viewBox="0 0 112 128" fill="none" xmlns="http://www.w3.org/2000/svg">
<g clip-path="url(#clip0_1090_197)">
<mask id="mask0_1090_197" style="mask-type:luminance" maskUnits="userSpaceOnUse" x="0" y="0" width="112" height="128">
<path d="M112 0H0V128H112V0Z" fill="white"/>
</mask>
<g mask="url(#mask0_1090_197)">
<path d="M105.647 12.5043C90.6929 -6.52058 75.9678 0.162357 61.7407 6.61626C59.8428 7.47858 57.9315 8.34089 56.0067 9.1493C54.082 8.34089 52.1706 7.47858 50.2593 6.61626C36.0322 0.162357 21.3071 -6.52058 6.35305 12.5043C-8.82973 31.8254 7.28179 58.0049 12.585 65.5636C13.0601 66.2436 13.3606 67.0303 13.4599 67.8542C15.6539 85.6933 20.8628 115.632 31.1059 115.632C31.6198 115.632 32.1128 115.428 32.4763 115.064C32.8398 114.7 33.0441 114.206 33.0441 113.692C33.0441 113.177 32.8398 112.684 32.4763 112.32C32.1128 111.956 31.6198 111.751 31.1059 111.751C26.2603 111.751 20.4591 93.0903 17.3094 67.3826C17.1302 65.9291 16.5988 64.5414 15.7615 63.3405C12.2619 58.3552 -4.42836 32.5666 9.39499 14.9026C22.478 -1.73743 34.6188 3.7733 48.6711 10.1464L50.8515 11.1299C47.2646 12.4454 43.4855 13.1601 39.6663 13.2453C39.1524 13.2453 38.6593 13.4497 38.2959 13.8136C37.9324 14.1774 37.7281 14.6709 37.7281 15.1855C37.7281 15.7001 37.9324 16.1936 38.2959 16.5575C38.6593 16.9213 39.1524 17.1257 39.6663 17.1257C45.5484 17.1257 51.1881 15.3203 56.6797 13.0836H56.8009C59.0083 12.1674 61.1752 11.1838 63.3423 10.2137C77.381 3.7733 89.5218 -1.73743 102.605 14.9026C116.496 32.5666 99.738 58.3552 96.2383 63.327C95.4055 64.529 94.8787 65.9167 94.704 67.369C91.5274 93.0903 85.7397 111.751 80.8941 111.751C80.38 111.751 79.887 111.956 79.5235 112.32C79.16 112.684 78.9559 113.177 78.9559 113.692C78.9559 114.206 79.16 114.7 79.5235 115.064C79.887 115.428 80.38 115.632 80.8941 115.632C91.1505 115.632 96.3461 85.6933 98.5401 67.8408C98.6421 67.0216 98.9424 66.24 99.4149 65.5636C104.718 58.0049 120.843 31.839 105.647 12.5043Z" fill="#BE922D"/>
<path d="M82.1056 61.6285V55.8618C82.1056 54.3205 81.4949 52.842 80.4073 51.7508C79.3197 50.6595 77.8441 50.0447 76.3044 50.0413H35.7362C34.1963 50.0447 32.7207 50.6595 31.6333 51.7508C30.5457 52.842 29.935 54.3205 29.935 55.8618V61.6285C29.935 63.17 30.5457 64.6485 31.6333 65.7397C32.7207 66.8308 34.1963 67.4456 35.7362 67.4493H36.9205L43.2064 116.723C43.6104 119.831 45.1307 122.687 47.4838 124.756C49.8368 126.825 52.8614 127.966 55.9933 127.966C59.1253 127.966 62.1499 126.825 64.5029 124.756C66.8559 122.687 68.3765 119.831 68.7803 116.723L75.0661 67.4493H76.2505C77.0176 67.4545 77.7779 67.3078 78.488 67.0177C79.1983 66.7278 79.844 66.2997 80.3883 65.7588C80.9325 65.2178 81.3644 64.5743 81.659 63.8655C81.9539 63.1566 82.1056 62.3963 82.1056 61.6285ZM33.8517 61.6285V55.8618C33.8464 55.6089 33.8908 55.3571 33.9827 55.1214C34.0745 54.8856 34.2118 54.6702 34.3869 54.4875C34.5618 54.3049 34.7712 54.1584 35.0025 54.0568C35.234 53.955 35.4833 53.9 35.7362 53.8947H76.2639C76.7781 53.8947 77.2711 54.0991 77.6346 54.4629C77.9981 54.8268 78.2021 55.3203 78.2021 55.835V61.6017C78.1987 62.1151 77.9934 62.6066 77.6307 62.9697C77.2678 63.3327 76.7769 63.5384 76.2639 63.5418H35.7362C35.2291 63.5384 34.7435 63.3362 34.3836 62.9784C34.0238 62.6208 33.8183 62.1362 33.8114 61.6285H33.8517ZM64.9576 116.237C64.6772 118.417 63.613 120.42 61.9643 121.871C60.3157 123.323 58.1954 124.123 56 124.123C53.8046 124.123 51.6844 123.323 50.0357 121.871C48.3871 120.42 47.3231 118.417 47.0425 116.237L40.824 67.4493H71.176L64.9576 116.237Z" fill="#BE922D"/>
<path d="M44.8754 80.4109C44.9971 80.8041 45.2421 81.1476 45.5744 81.3904C45.9066 81.6332 46.3081 81.7622 46.7195 81.7582C46.9252 81.7598 47.1296 81.7279 47.3251 81.6639L66.3845 75.2369C66.6351 75.1643 66.8687 75.0418 67.0711 74.8764C67.2733 74.7112 67.4403 74.5069 67.5617 74.2754C67.683 74.0442 67.7566 73.7907 67.7777 73.5302C67.7989 73.2695 67.7671 73.0074 67.6847 72.7596C67.602 72.5117 67.4702 72.2829 67.2974 72.0872C67.1243 71.8916 66.9135 71.7329 66.6777 71.6206C66.4419 71.5084 66.1857 71.4452 65.9248 71.4344C65.664 71.4239 65.4037 71.4661 65.1596 71.5586L46.1002 77.9586C45.6133 78.1215 45.2107 78.4714 44.981 78.9312C44.7513 79.3908 44.7135 79.9231 44.8754 80.4109Z" fill="#BE922D"/>
<path d="M63.2617 81.866L48.1328 86.9724C47.6646 87.15 47.2832 87.5017 47.0683 87.9544C46.8535 88.407 46.8219 88.9251 46.9804 89.4006C47.1386 89.876 47.4744 90.2716 47.9175 90.5046C48.3606 90.7376 48.8766 90.7901 49.3576 90.6509L64.5269 85.5309C64.7766 85.4551 65.0083 85.3298 65.2085 85.1623C65.4087 84.9947 65.5728 84.7887 65.6915 84.5561C65.81 84.3234 65.8805 84.0693 65.8986 83.8088C65.9167 83.5483 65.8823 83.287 65.797 83.0402C65.7119 82.7933 65.5777 82.5664 65.4027 82.3727C65.2278 82.1789 65.0156 82.0227 64.779 81.913C64.5422 81.8035 64.2858 81.7427 64.0251 81.7346C63.7645 81.7265 63.5047 81.7711 63.2617 81.866Z" fill="#BE922D"/>
<path d="M61.6061 92.1194L49.3307 96.2558C48.845 96.4244 48.4455 96.7778 48.2189 97.2394C47.992 97.7012 47.9562 98.2337 48.1193 98.7215C48.1981 98.9637 48.3245 99.1878 48.4911 99.3806C48.6577 99.5732 48.8611 99.7307 49.0892 99.8437C49.3175 99.9566 49.5659 100.023 49.8201 100.038C50.0742 100.054 50.3287 100.018 50.569 99.9341L62.831 95.7977C63.0817 95.7251 63.3152 95.6026 63.5177 95.4372C63.7199 95.272 63.8869 95.0676 64.0082 94.8362C64.1298 94.605 64.2031 94.3515 64.2243 94.0908C64.2455 93.8303 64.2137 93.5682 64.1312 93.3203C64.0487 93.0725 63.9168 92.8437 63.7439 92.648C63.5708 92.4524 63.36 92.2935 63.1242 92.1814C62.8884 92.0692 62.6325 92.006 62.3716 91.9952C62.1105 91.9847 61.8503 92.0269 61.6061 92.1194Z" fill="#BE922D"/>
<path d="M60.3004 102.265L51.3227 105.283C51.0765 105.365 50.8488 105.495 50.6536 105.666C50.4581 105.837 50.2986 106.045 50.1846 106.279C50.0705 106.512 50.0042 106.766 49.9893 107.025C49.9744 107.285 50.0113 107.544 50.0978 107.789C50.2233 108.18 50.4693 108.521 50.8008 108.764C51.1321 109.006 51.5316 109.136 51.942 109.137C52.1519 109.137 52.3608 109.106 52.561 109.042L61.5253 106.024C62.0134 105.858 62.416 105.506 62.6455 105.044C62.875 104.582 62.9127 104.048 62.7502 103.559C62.6783 103.31 62.5569 103.079 62.3936 102.878C62.2303 102.678 62.0283 102.512 61.7996 102.391C61.5711 102.271 61.3204 102.197 61.0628 102.176C60.8054 102.154 60.546 102.184 60.3004 102.265Z" fill="#BE922D"/>
<path d="M58.766 112.478L53.1532 114.364C52.9025 114.437 52.6689 114.56 52.4665 114.725C52.2643 114.89 52.0973 115.095 51.976 115.326C51.8546 115.557 51.7811 115.811 51.7599 116.071C51.7387 116.332 51.7705 116.594 51.853 116.842C51.9356 117.09 52.0674 117.319 52.2403 117.514C52.4134 117.71 52.6241 117.869 52.86 117.981C53.0958 118.093 53.3519 118.156 53.6128 118.167C53.8737 118.178 54.1339 118.135 54.3781 118.043L60.0043 116.143C60.2634 116.077 60.5059 115.959 60.7169 115.794C60.9276 115.63 61.1023 115.424 61.23 115.189C61.3577 114.954 61.4353 114.695 61.4583 114.429C61.4811 114.162 61.4487 113.894 61.3632 113.641C61.2777 113.388 61.1406 113.155 60.9608 112.957C60.781 112.759 60.5623 112.601 60.3185 112.491C60.0746 112.382 59.8109 112.325 59.5437 112.322C59.2765 112.32 59.0118 112.373 58.766 112.478Z" fill="#BE922D"/>
</g>
</g>
<defs>
<clipPath id="clip0_1090_197">
<rect width="112" height="128" fill="white"/>
</clipPath>
</defs>
</svg>
