<svg width="128" height="121" viewBox="0 0 128 121" fill="none" xmlns="http://www.w3.org/2000/svg">
<g clip-path="url(#clip0_1090_227)">
<mask id="mask0_1090_227" style="mask-type:luminance" maskUnits="userSpaceOnUse" x="0" y="0" width="128" height="121">
<path d="M128 0H0V121H128V0Z" fill="white"/>
</mask>
<g mask="url(#mask0_1090_227)">
<path d="M23.296 42.7106C23.9648 42.7106 24.6187 42.512 25.175 42.1403C25.731 41.7684 26.1645 41.2399 26.4205 40.6215C26.6765 40.0032 26.7435 39.3227 26.613 38.6663C26.4825 38.0099 26.1604 37.407 25.6873 36.9337C25.2144 36.4606 24.6117 36.1381 23.9557 36.0077C23.2997 35.8771 22.6198 35.944 22.0018 36.2002C21.3838 36.4563 20.8557 36.8901 20.4841 37.4465C20.1125 38.003 19.9142 38.6572 19.9142 39.3265C19.9124 39.7715 19.9986 40.2123 20.1678 40.6237C20.3373 41.0351 20.5863 41.4088 20.9006 41.7234C21.2151 42.038 21.5886 42.2871 21.9997 42.4566C22.4109 42.626 22.8514 42.7123 23.296 42.7106Z" fill="#BE922D"/>
<path d="M40.8927 42.7106C41.5615 42.7106 42.2153 42.512 42.7716 42.1403C43.3277 41.7684 43.7611 41.2399 44.0171 40.6215C44.2731 40.0032 44.3401 39.3227 44.2096 38.6663C44.0792 38.0099 43.757 37.407 43.284 36.9337C42.8111 36.4606 42.2084 36.1381 41.5524 36.0077C40.8964 35.8771 40.2164 35.944 39.5984 36.2002C38.9805 36.4563 38.4523 36.8901 38.0808 37.4465C37.7092 38.003 37.5108 38.6572 37.5108 39.3265C37.5108 40.224 37.8671 41.0847 38.5014 41.7194C39.1355 42.354 39.9958 42.7106 40.8927 42.7106Z" fill="#BE922D"/>
<path d="M67.4763 42.3468C67.479 36.3357 65.875 30.4336 62.8308 25.2516C59.7865 20.0696 55.4126 15.7966 50.1625 12.8753C49.3945 10.9339 48.3437 7.26686 50.3511 5.25806C50.8187 4.79492 51.4441 4.52626 52.1017 4.50626C52.7593 4.48624 53.4 4.71634 53.8948 5.15021C54.4279 5.47109 54.8276 5.97346 55.0206 6.56524C55.2135 7.15703 55.187 7.7986 54.9456 8.37237C54.6606 8.89317 54.5927 9.50557 54.7568 10.0762C54.9207 10.6469 55.3035 11.1296 55.8215 11.4193C56.077 11.5626 56.3582 11.6539 56.6491 11.688C56.9401 11.7222 57.2349 11.6985 57.5165 11.6183C57.7982 11.5381 58.0614 11.4031 58.2907 11.2208C58.52 11.0386 58.7111 10.8128 58.853 10.5564C59.631 9.04024 59.8304 7.29239 59.4137 5.6398C58.9972 3.98721 57.9931 2.54307 56.5895 1.5775C55.239 0.46344 53.5186 -0.101031 51.771 -0.00360351C50.0233 0.0938242 48.3764 0.84601 47.1579 2.10329C46.1302 3.21644 45.3854 4.56083 44.9869 6.02282C44.5881 7.4848 44.5472 9.02134 44.8674 10.5025C41.2763 9.23014 37.4939 8.58264 33.6843 8.58809C27.0267 8.58812 20.5186 10.5622 14.9815 14.261C9.44456 17.9598 5.12714 23.2174 2.57453 29.3699C0.0219144 35.5222 -0.651411 42.2936 0.63959 48.8288C1.93059 55.3639 5.12801 61.3696 9.82806 66.0875C14.5281 70.8056 20.52 74.024 27.047 75.3367C33.5739 76.6494 40.3433 75.9972 46.5001 73.4628C52.6569 70.9282 57.9252 66.6251 61.6393 61.0966C65.3534 55.568 67.3472 49.0623 67.3684 42.4007C67.3684 42.4007 67.4763 42.3736 67.4763 42.3468ZM62.8009 38.5449C59.1197 36.3968 56.0091 33.3937 53.7321 29.7895C51.455 26.1851 50.0781 22.0855 49.7179 17.8366C53.25 20.1466 56.2416 23.193 58.488 26.7671C60.7346 30.3413 62.1826 34.3588 62.7335 38.5449H62.8009ZM33.6843 13.0641C37.5074 13.064 41.2932 13.8153 44.827 15.2751C35.611 25.6157 14.7402 28.8514 7.35665 29.6603C9.7438 24.6986 13.4796 20.5102 18.136 17.5749C22.7924 14.6396 28.1808 13.0763 33.6843 13.0641ZM33.6843 71.616C25.9342 71.5946 18.5086 68.5009 13.0336 63.0123C7.55853 57.5239 4.48038 50.0879 4.47329 42.3332C4.47263 39.6337 4.84904 36.9473 5.5916 34.3521C11.5341 33.8275 17.4238 32.8175 23.2016 31.332C32.9702 28.7974 40.475 25.2651 45.6219 20.7892C45.9886 22.8357 46.5435 24.8441 47.2791 26.7887C50.1115 34.2586 55.7286 40.3382 62.949 43.7489C62.5789 51.2648 59.3339 58.3504 53.8859 63.5381C48.4381 68.7258 41.2048 71.6181 33.6843 71.616Z" fill="#BE922D"/>
<path d="M47.1579 53.8332C46.6948 53.4638 46.1044 53.2933 45.5158 53.359C44.9273 53.4248 44.3888 53.7212 44.0185 54.1837C42.6283 55.8772 40.88 57.2415 38.8998 58.1781C36.9195 59.1146 34.7563 59.6004 32.5659 59.6004C30.3755 59.6004 28.2125 59.1146 26.232 58.1781C24.2518 57.2415 22.5037 55.8772 21.1133 54.1837C20.7417 53.7063 20.1958 53.3961 19.5956 53.3216C18.9954 53.247 18.3904 53.4141 17.9133 53.786C17.4362 54.1577 17.1264 54.704 17.0518 55.3046C16.9773 55.9049 17.1442 56.5105 17.5158 56.9879C19.3241 59.2041 21.6023 60.9901 24.1855 62.2167C26.7686 63.4432 29.5922 64.0796 32.4514 64.0796C35.3106 64.0796 38.1341 63.4432 40.7174 62.2167C43.3005 60.9901 45.5787 59.2041 47.3871 56.9879C47.7711 56.5375 47.9622 55.9539 47.9193 55.3635C47.8765 54.7731 47.6029 54.2232 47.1579 53.8332Z" fill="#BE922D"/>
<path d="M111.427 58.2012C113.314 56.4889 113.516 53.3881 113.597 52.1073C113.838 50.772 113.579 49.3942 112.869 48.2381C112.647 48.0306 112.383 47.8747 112.094 47.7815C111.805 47.6883 111.499 47.66 111.198 47.6988C108.288 47.6988 103.451 50.193 99.072 53.8329C103.436 54.4657 107.634 55.9499 111.427 58.2012Z" fill="#BE922D"/>
<path d="M77.3524 47.6988C77.0536 47.6593 76.7496 47.6872 76.4628 47.7805C76.176 47.8739 75.9136 48.0301 75.6952 48.2381C74.9792 49.3921 74.7152 50.7702 74.9542 52.1073C75.1696 55.4239 76.0724 57.2304 77.1099 58.2146C80.9247 55.9448 85.1517 54.4554 89.5462 53.833C85.0998 50.193 80.2763 47.6988 77.3524 47.6988Z" fill="#BE922D"/>
<path d="M128 87.2008C127.986 82.119 126.824 77.106 124.6 72.537C122.377 67.9682 119.149 63.9615 115.16 60.8167C117.027 58.4188 118.05 55.4709 118.07 52.4311C118.272 49.2225 117.625 46.7957 116.13 45.2047C115.492 44.5501 114.722 44.0374 113.873 43.7006C113.023 43.3637 112.111 43.2102 111.198 43.2499C107.911 43.2499 104.219 45.0294 101.767 46.5126C99.1031 48.0938 96.6068 49.9413 94.3157 52.0266C92.0345 49.9333 89.5472 48.0769 86.8917 46.4855C84.3723 45.0026 80.6804 43.223 77.4603 43.223C76.5474 43.1865 75.6372 43.3417 74.7879 43.6783C73.9385 44.015 73.1691 44.5259 72.5289 45.1779C71.0468 46.7686 70.4 49.2225 70.6021 52.404C70.6114 55.4372 71.6254 58.3816 73.4855 60.7764C69.4871 63.917 66.253 67.9244 64.0265 72.497C61.8 77.0694 60.6393 82.0877 60.6317 87.1739C60.6317 96.1254 64.1854 104.71 70.5113 111.04C76.8372 117.37 85.4169 120.926 94.363 120.926C103.309 120.926 111.889 117.37 118.215 111.04C124.54 104.71 128.094 96.1254 128.094 87.1739L128 87.2008ZM94.3157 116.524C86.7586 116.527 79.493 113.606 74.0388 108.372C68.5844 103.138 65.3639 95.9964 65.051 88.4412C67.3415 86.9312 73.0004 83.1158 78.9154 78.3029C86.4068 72.2359 91.5536 66.8433 94.2754 62.2324C96.9701 66.8433 102.13 72.2359 109.622 78.3029C115.55 83.1158 121.196 86.9312 123.5 88.4412C123.184 95.9815 119.974 103.109 114.538 108.34C109.101 113.572 101.858 116.503 94.3157 116.524ZM97.2126 58.1204C103.671 58.7829 109.727 61.5714 114.43 66.0486C119.134 70.5259 122.22 76.4387 123.203 82.8597C114.634 76.9816 100.541 66.0612 97.1723 58.1204H97.2126ZM91.419 58.1204C88.037 66.0612 73.9031 76.9952 65.3877 82.8597C66.3714 76.4387 69.4569 70.5259 74.1607 66.0486C78.8644 61.5714 84.9204 58.7829 91.3785 58.1204H91.419ZM111.239 47.6989C111.54 47.6603 111.846 47.6884 112.134 47.7817C112.423 47.8749 112.688 48.0308 112.91 48.2383C113.62 49.3945 113.879 50.7721 113.637 52.1076C113.556 53.4557 113.354 56.489 111.468 58.2014C107.654 55.9417 103.433 54.4573 99.045 53.8333C103.451 50.1931 108.288 47.6989 111.198 47.6989H111.239ZM74.9945 52.1076C74.7556 50.7704 75.0196 49.3922 75.7357 48.2383C75.9541 48.0302 76.2164 47.874 76.5031 47.7806C76.7899 47.6874 77.0939 47.6594 77.3929 47.6989C80.3166 47.6989 85.1403 50.1931 89.5191 53.8333C85.1248 54.4555 80.8976 55.9449 77.083 58.2149C76.0724 57.2307 75.1696 55.4241 74.9541 52.1076H74.9945Z" fill="#BE922D"/>
<path d="M103.074 87.6322C103.743 87.6348 104.397 87.4389 104.955 87.0693C105.512 86.6998 105.948 86.1731 106.206 85.5556C106.465 84.9383 106.535 84.2582 106.407 83.6013C106.279 82.9443 105.959 82.34 105.488 81.8649C105.017 81.3898 104.416 81.0651 103.76 80.932C103.105 80.7987 102.424 80.8631 101.805 81.1167C101.187 81.3704 100.657 81.8019 100.283 82.3569C99.9088 82.9119 99.708 83.5655 99.7053 84.2347C99.7035 84.6791 99.7892 85.1195 99.9576 85.5307C100.126 85.9419 100.374 86.3159 100.686 86.6314C100.999 86.9469 101.371 87.1978 101.78 87.3694C102.19 87.5411 102.63 87.6304 103.074 87.6322Z" fill="#BE922D"/>
<path d="M85.477 87.6322C86.146 87.6322 86.7999 87.4338 87.356 87.0619C87.912 86.69 88.3456 86.1615 88.6015 85.5431C88.8575 84.9248 88.9245 84.2445 88.794 83.5881C88.6635 82.9317 88.3414 82.3286 87.8685 81.8555C87.3954 81.3822 86.7929 81.0599 86.1369 80.9293C85.4808 80.7987 84.8009 80.8658 84.183 81.1218C83.565 81.3781 83.0368 81.8117 82.6651 82.3681C82.2936 82.9247 82.0952 83.579 82.0952 84.2483C82.0952 85.1458 82.4514 86.0065 83.0857 86.641C83.72 87.2757 84.5801 87.6322 85.477 87.6322Z" fill="#BE922D"/>
<path d="M108.854 98.9165C108.391 98.5472 107.8 98.3768 107.212 98.4424C106.623 98.5081 106.085 98.8047 105.715 99.267C104.324 100.961 102.576 102.325 100.596 103.261C98.6155 104.198 96.4523 104.684 94.2619 104.684C92.0715 104.684 89.9083 104.198 87.928 103.261C85.9478 102.325 84.1997 100.961 82.8093 99.267C82.4395 98.8022 81.9001 98.5035 81.3103 98.4364C80.7202 98.3695 80.1277 98.5398 79.6631 98.9097C79.1986 99.2798 78.9001 99.8195 78.8331 100.41C78.7661 101 78.9362 101.593 79.3062 102.058C81.1115 104.278 83.3888 106.068 85.9725 107.298C88.5559 108.527 91.3808 109.165 94.2416 109.165C97.1026 109.165 99.9275 108.527 102.511 107.298C105.095 106.068 107.372 104.278 109.177 102.058C109.549 101.598 109.724 101.009 109.664 100.42C109.603 99.8316 109.312 99.291 108.854 98.9165Z" fill="#BE922D"/>
</g>
</g>
<defs>
<clipPath id="clip0_1090_227">
<rect width="128" height="121" fill="white"/>
</clipPath>
</defs>
</svg>
