<svg width="133" height="133" viewBox="0 0 133 133" fill="none" xmlns="http://www.w3.org/2000/svg">
<g clip-path="url(#clip0_1090_184)">
<mask id="mask0_1090_184" style="mask-type:luminance" maskUnits="userSpaceOnUse" x="0" y="0" width="133" height="133">
<path d="M133 0H0V133H133V0Z" fill="white"/>
</mask>
<g mask="url(#mask0_1090_184)">
<path d="M128.94 33.6C119.28 19.18 109.34 24.5 100.66 29.1201C99.6799 29.6799 98.5601 30.2399 97.58 30.7999C96.6 30.2399 95.48 29.6799 94.5 29.1201C85.8199 24.5 76.16 19.46 66.5 33.1799C56.98 19.46 47.1801 24.6399 38.4999 29.1201C37.52 29.6799 36.4 30.2399 35.42 30.7999C34.4401 30.2399 33.32 29.6799 32.3399 29.1201C23.5201 24.5 13.72 19.18 4.06 33.6C-5.60001 47.7401 4.47999 66.78 7.84 72.38C8.11999 72.7999 8.25999 73.3599 8.25999 73.78C10.64 97.0199 14.7 108.78 20.02 108.78C24.78 108.78 32.48 101.78 32.8999 82.8799C32.8999 82.8799 32.8999 82.8799 32.8999 82.74C32.8999 80.92 33.74 79.38 35.2799 78.54C35.42 78.3999 35.5599 78.3999 35.5599 78.54C37.1001 79.52 37.9399 80.92 37.9399 82.74C37.9399 82.74 37.9399 82.74 37.9399 82.8799C38.36 101.78 46.06 108.78 50.82 108.78C56.14 108.78 60.06 97.0199 62.58 73.78C62.58 73.22 62.86 72.7999 63 72.38C63.84 70.9799 65.24 68.6 66.5 65.6599C67.7599 68.6 69.16 70.9799 70 72.38C70.28 72.7999 70.4199 73.3599 70.4199 73.78C72.94 97.0199 76.86 108.78 82.18 108.78C86.94 108.78 94.64 101.78 95.0601 82.8799C95.0601 82.8799 95.0601 82.8799 95.0601 82.74C95.0601 80.92 95.9001 79.38 97.44 78.54C97.58 78.3999 97.7201 78.3999 97.7201 78.54C99.26 79.52 100.1 80.92 100.1 82.74C100.1 82.74 100.1 82.74 100.1 82.8799C100.52 101.78 108.22 108.78 112.98 108.78C118.3 108.78 122.22 97.0199 124.74 73.78C124.74 73.22 125.02 72.7999 125.16 72.38C128.52 66.78 138.6 47.7401 128.94 33.6ZM59.4999 70.28C58.9399 71.26 58.6601 72.2399 58.52 73.3599C56.2799 94.3599 52.64 104.44 50.82 104.72C48.5799 104.72 42.4201 99.54 42 82.74C42 78.26 39.34 76.0199 37.6599 75.04C36.26 74.2 34.58 74.2 33.1799 75.04C31.64 76.0199 28.98 78.26 28.8401 82.74C28.42 99.54 22.2599 104.72 20.02 104.72C18.2001 104.3 14.56 94.22 12.32 73.3599C12.18 72.2399 11.9 71.12 11.34 70.28C9.23999 66.78 -0.980009 48.2999 7.41998 35.8399C11.2 30.2399 14.7 28.28 18.4801 28.28C22.2599 28.28 26.1801 30.38 30.5199 32.6199L30.7999 32.76C28.98 33.32 27.2999 33.7399 25.4799 33.7399C24.3599 33.7399 23.5201 34.58 23.5201 35.7C23.5201 36.82 24.3599 37.6599 25.4799 37.6599C29.26 37.6599 32.8999 36.26 36.4 34.58C37.8 33.88 39.2 33.1799 40.46 32.48C49.1399 27.8599 55.86 24.3599 63.56 35.7C63.84 36.1199 64.12 36.54 64.2599 36.96C61.8799 42.4201 61.74 48.2999 62.72 53.76H47.4601V51.7999C47.4601 47.32 43.8199 43.68 39.34 43.68H31.2201C26.7401 43.68 23.1 47.32 23.1 51.7999V53.76H15.96C14.84 53.76 14 54.6 14 55.7201C14 56.8399 14.84 57.6799 15.96 57.6799H23.1V59.64C23.1 64.12 26.7401 67.7599 31.2201 67.7599H39.34C43.8199 67.7599 47.4601 64.12 47.4601 59.64V57.6799H63.7001C63.84 58.3801 64.12 59.08 64.4 59.7799C62.58 64.96 60.4801 68.74 59.4999 70.28ZM27.2999 51.7999C27.2999 49.56 29.1201 47.7401 31.36 47.7401H39.4801C41.72 47.7401 43.5399 49.56 43.5399 51.7999V59.92C43.5399 62.1599 41.72 63.9799 39.4801 63.9799H31.36C29.1201 63.9799 27.2999 62.1599 27.2999 59.92V51.7999ZM121.66 70.28C121.1 71.26 120.82 72.2399 120.68 73.3599C118.44 94.3599 114.8 104.44 112.98 104.72C110.74 104.72 104.44 99.54 104.16 82.74C104.16 78.26 101.5 76.0199 99.96 75.04C98.5601 74.2 96.88 74.2 95.48 75.04C93.94 76.0199 91.28 78.26 91.1399 82.74C90.72 99.54 84.56 104.72 82.3201 104.72C80.4999 104.3 76.86 94.22 74.6201 73.3599C74.48 72.2399 74.2 71.12 73.64 70.28C72.66 68.6 70 63.84 68.18 57.96H85.68V59.92C85.68 64.4 89.3199 68.0399 93.7999 68.0399H101.92C106.4 68.0399 110.04 64.4 110.04 59.92V57.82H117.74C118.86 57.82 119.7 56.98 119.7 55.86C119.7 54.7399 118.86 53.8999 117.74 53.8999H110.04V51.7999C110.04 47.32 106.4 43.68 101.92 43.68H93.7999C89.3199 43.68 85.68 47.32 85.68 51.7999V53.76H66.9199C65.66 47.7401 65.8001 41.1599 69.44 35.7C73.22 30.1 76.86 28.1399 80.4999 28.1399C84.28 28.1399 88.1999 30.2399 92.54 32.48C92.6801 32.48 92.6801 32.6199 92.82 32.6199C91 33.1799 89.3199 33.6 87.5 33.6C86.3799 33.6 85.5399 34.4401 85.5399 35.5599C85.5399 36.68 86.3799 37.52 87.5 37.52C92.82 37.52 97.86 34.86 102.62 32.3399C111.3 27.72 118.02 24.22 125.72 35.5599C134.12 48.2999 123.9 66.6399 121.66 70.28ZM105.56 59.92C105.56 62.1599 103.74 63.9799 101.5 63.9799H93.38C91.1399 63.9799 89.32 62.1599 89.32 59.92V51.7999C89.32 49.56 91.1399 47.7401 93.38 47.7401H101.5C103.74 47.7401 105.56 49.56 105.56 51.7999V59.92Z" fill="#BE922D"/>
</g>
</g>
<defs>
<clipPath id="clip0_1090_184">
<rect width="133" height="133" fill="white"/>
</clipPath>
</defs>
</svg>
