<svg width="800" height="800" viewBox="0 0 800 800" xmlns="http://www.w3.org/2000/svg">
  <defs>
    <linearGradient id="team-bg" x1="0%" y1="0%" x2="100%" y2="100%">
      <stop offset="0%" style="stop-color:#F0F9FF;stop-opacity:1" />
      <stop offset="100%" style="stop-color:#E0F2FE;stop-opacity:1" />
    </linearGradient>
  </defs>
  <rect width="800" height="800" fill="url(#team-bg)"/>
  <circle cx="200" cy="200" r="60" fill="#3B82F6" opacity="0.2"/>
  <circle cx="600" cy="200" r="60" fill="#3B82F6" opacity="0.2"/>
  <circle cx="400" cy="300" r="70" fill="#3B82F6" opacity="0.15"/>
  <path d="M200 260 Q200 320 160 360 L240 360 Q200 320 200 260" fill="#3B82F6" opacity="0.3"/>
  <path d="M600 260 Q600 320 560 360 L640 360 Q600 320 600 260" fill="#3B82F6" opacity="0.3"/>
  <path d="M400 370 Q400 430 350 480 L450 480 Q400 430 400 370" fill="#3B82F6" opacity="0.25"/>
  <circle cx="200" cy="180" r="8" fill="#1E40AF"/>
  <circle cx="600" cy="180" r="8" fill="#1E40AF"/>
  <circle cx="400" cy="280" r="8" fill="#1E40AF"/>
  <path d="M185 180 Q200 170 215 180" stroke="#1E40AF" stroke-width="2" fill="none"/>
  <path d="M585 180 Q600 170 615 180" stroke="#1E40AF" stroke-width="2" fill="none"/>
  <path d="M385 280 Q400 270 415 280" stroke="#1E40AF" stroke-width="2" fill="none"/>
  <text x="400" y="600" font-family="Arial, sans-serif" font-size="28" fill="#1E40AF" text-anchor="middle" font-weight="600">Expert Dental Team</text>
  <text x="400" y="630" font-family="Arial, sans-serif" font-size="18" fill="#64748B" text-anchor="middle">Working Together for Your Smile</text>
</svg>
